<svg width="195" height="30" viewBox="0 0 195 30" fill="none" xmlns="http://www.w3.org/2000/svg">
<g clip-path="url(#clip0_58_10557)">
<path d="M193.731 8.45273L187.754 2.47638C187.179 1.90693 186.228 1.9539 185.741 2.59967C179.899 10.2491 170.219 15.2509 159.264 15.2509C148.304 15.2509 138.623 10.2433 132.781 2.59967C132.288 1.9539 131.337 1.90693 130.768 2.47638L124.792 8.45273C123.976 9.26873 123.899 10.572 124.633 11.4585C132.858 21.4386 145.304 27.7965 159.241 27.8083H159.264H159.288C173.225 27.8025 185.676 21.4386 193.895 11.4585C194.629 10.572 194.547 9.26286 193.737 8.45273" fill="#ED1944"/>
<path d="M104.525 6.41636H98.4913C98.2458 6.40954 98.014 6.50499 97.8435 6.67544L96.2481 8.27088C96.0776 8.44134 95.9822 8.67997 95.9822 8.91861V9.8527C95.9822 10.3027 96.3504 10.6709 96.8004 10.6709H105.378C106.08 10.6709 106.653 11.2368 106.653 11.9391V17.905C106.653 18.6072 106.08 19.18 105.378 19.18H102.105C102.098 19.18 102.091 19.18 102.084 19.18H96.8345C96.3708 19.18 95.989 19.555 95.989 20.0254V22.5891C95.989 23.0527 96.364 23.4345 96.8345 23.4345H104.539C108.064 23.4345 110.914 20.5777 110.914 17.0595V12.7913C110.914 9.26634 108.057 6.41636 104.539 6.41636" fill="#ED1944"/>
<path d="M4.27767 16.5481C4.4004 16.889 4.72767 17.114 5.08903 17.114H7.73448C8.32766 17.114 8.73675 16.5276 8.5322 15.9754L4.27085 4.82763C4.14812 4.48672 3.82767 4.26172 3.4663 4.26172H0.841302C0.26176 4.26172 -0.147331 4.84126 0.0503963 5.38672L4.27085 16.5413L4.27767 16.5481Z" fill="#ED1944"/>
<path d="M78.0845 25.6152H75.4186C74.9754 25.6152 74.614 25.9766 74.614 26.4198V29.0857C74.614 29.5289 74.9754 29.8902 75.4186 29.8902H78.0845C78.5277 29.8902 78.889 29.5289 78.889 29.0857V26.4198C78.889 25.9766 78.5277 25.6152 78.0845 25.6152Z" fill="#ED1944"/>
<path d="M92.9892 25.6152H86.1233C85.6597 25.6152 85.2847 25.9902 85.2847 26.4539V29.0516C85.2847 29.5152 85.6597 29.8902 86.1233 29.8902H92.9892C93.4529 29.8902 93.8278 29.5152 93.8278 29.0516V26.4539C93.8278 25.9902 93.4529 25.6152 92.9892 25.6152Z" fill="#ED1944"/>
<path d="M38.4095 6.40227H36.6503L42.4935 0.845455C42.7935 0.524999 42.5686 0 42.1254 0H37.8027C37.4686 0 37.1481 0.129546 36.9027 0.368182L27.9094 9.23182C27.3776 9.76364 27.7527 10.6705 28.5027 10.6705H38.4436C39.589 10.6705 40.523 11.6591 40.523 12.8045V19.2068L24.6845 19.1932C23.989 19.1932 23.4231 18.6273 23.4231 17.9318V5.1C23.4231 4.63636 23.0481 4.26136 22.5845 4.26136H20.048C19.5844 4.26136 19.2095 4.63636 19.2095 5.1L19.2231 17.4136C19.3867 20.7545 22.1412 23.4068 25.523 23.4068L43.8981 23.4205C44.3617 23.4205 44.7367 23.0455 44.7367 22.5818L44.7094 12.6068C44.5935 9.225 41.8254 6.40227 38.4095 6.40227Z" fill="#ED1944"/>
<path d="M16.2504 4.26754H13.7141C13.2504 4.26754 12.8754 4.64254 12.8754 5.10618V18.0062C12.8754 18.7016 12.3095 19.2675 11.6141 19.2675L2.55954 19.2539C2.31409 19.2539 2.08226 19.3494 1.91181 19.5198L0.289083 21.0675C0.118628 21.238 0.0163574 21.4766 0.0163574 21.7153V22.6494C0.0163574 23.0994 0.384537 23.4675 0.834535 23.4675H10.7754C14.1572 23.4675 16.905 20.8085 17.0754 17.4744L17.0891 5.09254C17.0891 4.62891 16.7141 4.25391 16.2504 4.25391" fill="#ED1944"/>
<path d="M93.8073 17.3787L93.8209 11.515C93.8209 11.0446 93.4391 10.6696 92.9755 10.6696H90.405C89.9346 10.6696 89.5596 11.0514 89.5596 11.515V17.9105C89.5596 18.6127 88.9868 19.1855 88.2846 19.1855H78.8891V12.79C78.8891 8.67184 75.9368 6.4082 72.48 6.4082H66.4527C66.2072 6.4082 65.9754 6.50366 65.805 6.67411L64.2095 8.26957C64.039 8.44002 63.9436 8.67866 63.9436 8.91729V9.85138C63.9436 10.3014 64.3118 10.6696 64.7618 10.6696H73.3391C74.0414 10.6627 74.6141 11.2355 74.6141 11.9377L74.6346 19.1787L60.5277 19.2127C60.0641 19.2127 59.6822 19.5946 59.6822 20.0582V22.6355C59.6822 23.1059 60.0641 23.4809 60.5277 23.4809H63.9504V24.3468C63.9504 25.0491 63.3777 25.6218 62.6754 25.6218H52.2981C51.6641 25.6218 51.1459 25.1037 51.1459 24.4627V15.79C51.1459 15.3264 50.7641 14.9446 50.2936 14.9446H47.7231C47.2527 14.9446 46.8777 15.3196 46.8777 15.79L46.8913 23.5014C46.8777 27.7559 49.0118 29.89 53.28 29.89H61.9118C65.6959 29.89 68.2187 27.4696 68.2187 23.4877H78.0505C78.5141 23.4877 78.8959 23.1059 78.8959 22.6423V21.3196L78.9096 21.3332L80.7778 23.2423C80.9346 23.4059 81.1459 23.4946 81.3709 23.4946H87.4391C90.855 23.4946 93.6437 20.7673 93.8141 17.3923" fill="#ED1944"/>
</g>
<defs>
<clipPath id="clip0_58_10557">
<rect width="195" height="30" fill="white"/>
</clipPath>
</defs>
</svg>
