<svg width="24" height="24" viewBox="0 0 24 24" fill="none" xmlns="http://www.w3.org/2000/svg">
<path fill-rule="evenodd" clip-rule="evenodd" d="M10.5001 18C8.80859 17.9998 7.16685 17.4278 5.84143 16.377C4.51601 15.3261 3.58473 13.8581 3.1988 12.2112C2.81288 10.5643 2.99498 8.83539 3.71553 7.30507C4.43608 5.77475 5.65277 4.53294 7.16805 3.78126C8.68332 3.02959 10.4082 2.8122 12.0626 3.16438C13.717 3.51657 15.2038 4.41766 16.2815 5.72133C17.3592 7.025 17.9646 8.6547 17.9994 10.3458C18.0342 12.0369 17.4963 13.6901 16.4731 15.037L20.8421 19.283L19.4481 20.717L15.0611 16.454C13.7532 17.4589 12.1494 18.0025 10.5001 18ZM16.0001 10.5C16.0001 11.9587 15.4206 13.3576 14.3891 14.3891C13.3577 15.4205 11.9587 16 10.5001 16C9.04136 16 7.64242 15.4205 6.61097 14.3891C5.57952 13.3576 5.00005 11.9587 5.00005 10.5C5.00005 9.04132 5.57952 7.64237 6.61097 6.61092C7.64242 5.57947 9.04136 5.00001 10.5001 5.00001C11.9587 5.00001 13.3577 5.57947 14.3891 6.61092C15.4206 7.64237 16.0001 9.04132 16.0001 10.5Z" fill="#A1A3A8"/>
</svg>
